<svg xmlns="http://www.w3.org/2000/svg" width="252.656" height="250.813" viewBox="0 0 252.656 250.813">
  <g id="Group_2" data-name="Group 2" transform="translate(-2201.687 -102.077)">
    <g id="Group_1" data-name="Group 1" transform="translate(-12 -163)">
      <path id="Path_15" data-name="Path 15" d="M0,0,6.782,2.414,48.224,17.165" transform="translate(2293.804 494.015)" fill="none" stroke="#707070" stroke-width="10"/>
      <path id="Path_16" data-name="Path 16" d="M-1.842,16.794,46.621,0" transform="translate(2340 494.372)" fill="none" stroke="#707070" stroke-width="10"/>
      <line id="Line_3" data-name="Line 3" y1="116.32" x2="8.5" transform="translate(2385 378.68)" fill="none" stroke="#707070" stroke-width="10"/>
      <line id="Line_11" data-name="Line 11" y1="57" transform="translate(2340 453)" fill="none" stroke="#707070" stroke-width="10"/>
      <line id="Line_26" data-name="Line 26" y1="57" transform="translate(2340.029 453)" fill="none" stroke="#707070" stroke-width="10"/>
      <path id="Path_14" data-name="Path 14" d="M0,69.474,78.775-1.315" transform="translate(2384.225 425.995)" fill="none" stroke="#707070" stroke-width="10"/>
      <path id="Path_19" data-name="Path 19" d="M13.266,143.629-30-3.483" transform="translate(2448 284.5)" fill="none" stroke="#707070" stroke-width="10"/>
      <path id="Path_25" data-name="Path 25" d="M-30,143.629,13.266-3.483" transform="translate(2248.763 284.5)" fill="none" stroke="#707070" stroke-width="10"/>
      <line id="Line_10" data-name="Line 10" x1="82.5" y1="14.68" transform="translate(2338 270)" fill="none" stroke="#707070" stroke-width="10"/>
      <line id="Line_6" data-name="Line 6" y1="62" x2="69.926" transform="translate(2391.5 316.68)" fill="none" stroke="#707070" stroke-width="10"/>
      <line id="Line_29" data-name="Line 29" x1="69.926" y1="62" transform="translate(2218.603 316.68)" fill="none" stroke="#707070" stroke-width="10"/>
      <line id="Line_9" data-name="Line 9" x1="56.5" y1="37.68" transform="translate(2340 345)" fill="none" stroke="#707070" stroke-width="10"/>
      <line id="Line_15" data-name="Line 15" y1="75" transform="translate(2340 270)" fill="none" stroke="#707070" stroke-width="10"/>
      <line id="Line_7" data-name="Line 7" x1="10" y1="48" transform="translate(2451.426 273.68)" fill="none" stroke="#707070" stroke-width="10"/>
      <line id="Line_8" data-name="Line 8" x1="34.926" y2="6" transform="translate(2418.5 278.68)" fill="none" stroke="#707070" stroke-width="10"/>
      <g id="Path_13" data-name="Path 13" transform="translate(2376.729 454.709) rotate(180)" fill="#707070">
        <path d="M 67.91232299804688 36.70925903320312 L 5.545886039733887 36.70925903320312 L 10.94325828552246 15.10823154449463 L 36.9840087890625 5.345805644989014 L 62.51018142700195 15.08977508544922 L 67.91232299804688 36.70925903320312 Z" stroke="none"/>
        <path d="M 36.96802520751953 10.69159126281738 L 15.15749740600586 18.86814308166504 L 11.94894027709961 31.70924949645996 L 61.50922012329102 31.70924949645996 L 58.29133605957031 18.83123016357422 L 36.96802520751953 10.69159126281738 M 37.00000762939453 -1.1444091796875e-05 L 66.72900390625 11.34828948974609 L 74.3154296875 41.70925140380859 L -0.857177734375 41.70925140380859 L 6.72900390625 11.34828948974609 L 37.00000762939453 -1.1444091796875e-05 Z" stroke="none" fill="#707070"/>
      </g>
      <path id="Path_23" data-name="Path 23" d="M-1.842,16.794,46.621,0" transform="translate(2340 494.372)" fill="none" stroke="#707070" stroke-width="10"/>
      <path id="Path_27" data-name="Path 27" d="M46.621,16.794-1.842,0" transform="translate(2295.25 494.372)" fill="none" stroke="#707070" stroke-width="10"/>
      <line id="Line_18" data-name="Line 18" y1="116.32" x2="8.5" transform="translate(2385 378.68)" fill="none" stroke="#707070" stroke-width="10"/>
      <line id="Line_24" data-name="Line 24" x1="8.5" y1="116.32" transform="translate(2286.529 378.68)" fill="none" stroke="#707070" stroke-width="10"/>
      <path id="Path_24" data-name="Path 24" d="M0,69.474,78.775-1.315" transform="translate(2384.225 425.995)" fill="none" stroke="#707070" stroke-width="10"/>
      <path id="Path_26" data-name="Path 26" d="M78.775,69.474,0-1.315" transform="translate(2217.029 425.995)" fill="none" stroke="#707070" stroke-width="10"/>
      <line id="Line_19" data-name="Line 19" x1="82.5" y1="14.68" transform="translate(2338 270)" fill="none" stroke="#707070" stroke-width="10"/>
      <line id="Line_28" data-name="Line 28" y1="14.68" x2="82.5" transform="translate(2259.529 270)" fill="none" stroke="#707070" stroke-width="10"/>
      <line id="Line_20" data-name="Line 20" x1="56.5" y1="37.68" transform="translate(2340 345)" fill="none" stroke="#707070" stroke-width="10"/>
      <line id="Line_25" data-name="Line 25" y1="37.68" x2="56.5" transform="translate(2283.529 345)" fill="none" stroke="#707070" stroke-width="10"/>
      <line id="Line_21" data-name="Line 21" y1="75" transform="translate(2340 270)" fill="none" stroke="#707070" stroke-width="10"/>
      <line id="Line_27" data-name="Line 27" y1="75" transform="translate(2340.029 270)" fill="none" stroke="#707070" stroke-width="10"/>
      <line id="Line_22" data-name="Line 22" x1="10" y1="48" transform="translate(2451.426 273.68)" fill="none" stroke="#707070" stroke-width="10"/>
      <line id="Line_30" data-name="Line 30" y1="48" x2="10" transform="translate(2218.603 273.68)" fill="none" stroke="#707070" stroke-width="10"/>
      <line id="Line_23" data-name="Line 23" x1="34.926" y2="6" transform="translate(2418.5 278.68)" fill="none" stroke="#707070" stroke-width="10"/>
      <line id="Line_31" data-name="Line 31" x2="34.926" y2="6" transform="translate(2227.103 278.68)" fill="none" stroke="#707070" stroke-width="10"/>
    </g>
  </g>
</svg>
