<svg xmlns="http://www.w3.org/2000/svg" width="254.58" height="251.902" viewBox="0 0 254.58 251.902">
  <g id="Group_5" data-name="Group 5" transform="translate(-2543.417 -664.343)">
    <g id="Group_4" data-name="Group 4" transform="translate(122.961 656)">
      <g id="Group_2" data-name="Group 2" transform="translate(219.64 -93)">
        <path id="Path_15" data-name="Path 15" d="M0,0,6.782,2.414,48.224,17.165" transform="translate(2281.804 331.015)" fill="#5a381d" stroke="#241814" stroke-width="10"/>
        <path id="Path_16" data-name="Path 16" d="M-1.842,16.794,46.621,0" transform="translate(2328 331.372)" fill="#5a381d" stroke="#241814" stroke-width="10"/>
        <line id="Line_3" data-name="Line 3" y1="116.32" x2="8.5" transform="translate(2373 215.68)" fill="none" stroke="#241814" stroke-width="10"/>
        <line id="Line_11" data-name="Line 11" y1="57" transform="translate(2328 290)" fill="none" stroke="#241814" stroke-width="10"/>
        <line id="Line_26" data-name="Line 26" y1="57" transform="translate(2328.029 290)" fill="none" stroke="#241814" stroke-width="10"/>
        <path id="Path_14" data-name="Path 14" d="M0,69.474,78.775-1.315" transform="translate(2372.225 262.995)" fill="#5a381d" stroke="#241814" stroke-width="10"/>
        <path id="Path_19" data-name="Path 19" d="M13.266,143.629-30-3.483" transform="translate(2436 121.5)" fill="#775f4c" stroke="#241814" stroke-width="10"/>
        <path id="Path_25" data-name="Path 25" d="M-30,143.629,13.266-3.483" transform="translate(2236.763 121.5)" fill="#5a381d" stroke="#241814" stroke-width="10"/>
        <line id="Line_10" data-name="Line 10" x1="82.5" y1="14.68" transform="translate(2326 107)" fill="none" stroke="#241814" stroke-width="10"/>
        <line id="Line_6" data-name="Line 6" y1="62" x2="69.926" transform="translate(2379.5 153.68)" fill="none" stroke="#241814" stroke-width="10"/>
        <line id="Line_29" data-name="Line 29" x1="69.926" y1="62" transform="translate(2206.603 153.68)" fill="none" stroke="#241814" stroke-width="10"/>
        <line id="Line_9" data-name="Line 9" x1="56.5" y1="37.68" transform="translate(2328 182)" fill="none" stroke="#241814" stroke-width="10"/>
        <line id="Line_15" data-name="Line 15" y1="75" transform="translate(2328 107)" fill="none" stroke="#241814" stroke-width="10"/>
        <line id="Line_7" data-name="Line 7" x1="10" y1="48" transform="translate(2439.426 110.68)" fill="none" stroke="#241814" stroke-width="10"/>
        <line id="Line_8" data-name="Line 8" x1="34.926" y2="6" transform="translate(2406.5 115.68)" fill="none" stroke="#241814" stroke-width="10"/>
        <g id="Path_13" data-name="Path 13" transform="translate(2364.729 291.709) rotate(180)" fill="#241814">
          <path d="M 67.91232299804688 36.70925903320312 L 5.545886039733887 36.70925903320312 L 10.94325828552246 15.10823154449463 L 36.9840087890625 5.345805644989014 L 62.51018142700195 15.08977508544922 L 67.91232299804688 36.70925903320312 Z" stroke="none"/>
          <path d="M 36.96802520751953 10.69159126281738 L 15.15749740600586 18.86814308166504 L 11.94894027709961 31.70924949645996 L 61.50922012329102 31.70924949645996 L 58.29133605957031 18.83123016357422 L 36.96802520751953 10.69159126281738 M 37.00000762939453 -1.1444091796875e-05 L 66.72900390625 11.34828948974609 L 74.3154296875 41.70925140380859 L -0.857177734375 41.70925140380859 L 6.72900390625 11.34828948974609 L 37.00000762939453 -1.1444091796875e-05 Z" stroke="none" fill="#241814"/>
        </g>
        <path id="Path_23" data-name="Path 23" d="M-1.842,16.794,46.621,0" transform="translate(2328 331.372)" fill="#5a381d" stroke="#241814" stroke-width="10"/>
        <path id="Path_27" data-name="Path 27" d="M46.621,16.794-1.842,0" transform="translate(2283.25 331.372)" fill="#5a381d" stroke="#241814" stroke-width="10"/>
        <line id="Line_18" data-name="Line 18" y1="116.32" x2="8.5" transform="translate(2373 215.68)" fill="none" stroke="#241814" stroke-width="10"/>
        <line id="Line_24" data-name="Line 24" x1="8.5" y1="116.32" transform="translate(2274.529 215.68)" fill="none" stroke="#241814" stroke-width="10"/>
        <path id="Path_24" data-name="Path 24" d="M0,70.293,79.526-1.315" transform="translate(2372.225 262.176)" fill="#775f4c" stroke="#241814" stroke-width="10"/>
        <path id="Path_26" data-name="Path 26" d="M78.756,70.726,0-1.315" transform="translate(2205.047 261.744)" fill="#5a381d" stroke="#241814" stroke-width="10"/>
        <line id="Line_19" data-name="Line 19" x1="82.5" y1="14.68" transform="translate(2326 107)" fill="none" stroke="#241814" stroke-width="10"/>
        <line id="Line_28" data-name="Line 28" y1="14.68" x2="82.5" transform="translate(2247.529 107)" fill="none" stroke="#241814" stroke-width="10"/>
        <line id="Line_20" data-name="Line 20" x1="56.5" y1="37.68" transform="translate(2328 182)" fill="none" stroke="#241814" stroke-width="10"/>
        <line id="Line_25" data-name="Line 25" y1="37.68" x2="56.5" transform="translate(2271.529 182)" fill="none" stroke="#241814" stroke-width="10"/>
        <line id="Line_21" data-name="Line 21" y1="75" transform="translate(2328 107)" fill="none" stroke="#241814" stroke-width="10"/>
        <line id="Line_27" data-name="Line 27" y1="75" transform="translate(2328.029 107)" fill="none" stroke="#241814" stroke-width="10"/>
        <path id="Path_38" data-name="Path 38" d="M10,48l-.156-.75L0,0" transform="translate(2439.426 110.68)" fill="none" stroke="#241814" stroke-width="10"/>
        <line id="Line_30" data-name="Line 30" y1="48" x2="10" transform="translate(2206.603 110.68)" fill="none" stroke="#241814" stroke-width="10"/>
        <line id="Line_23" data-name="Line 23" x1="34.926" y2="6" transform="translate(2406.5 115.68)" fill="none" stroke="#241814" stroke-width="10"/>
        <line id="Line_31" data-name="Line 31" x2="34.926" y2="6" transform="translate(2215.103 115.68)" fill="none" stroke="#241814" stroke-width="10"/>
      </g>
      <path id="Path_28" data-name="Path 28" d="M2588.32,234.93l-35.426,12.822-.523-50.348,25.677-10.063,7.3-30.353h-75.425l7.662,30.353,25,10.063-.093,50.348L2507.26,234.93l-7.635-107.891,48.209-31.9,47.911,31.9-7.426,108.149" fill="#b0816d" stroke="#b0816d" stroke-width="1"/>
      <path id="Path_29" data-name="Path 29" d="M2656.2,28.622l6.554,31.049-17.53,15.11L2633.15,32.467l23.507-4.083" fill="#241814" stroke="#241814" stroke-width="1"/>
      <path id="Path_30" data-name="Path 30" d="M2640.037,28.626l-6.888,31.606,18.423,15.381,12.69-43.073-24.7-4.156" transform="translate(-201)" fill="#241814" stroke="#241814" stroke-width="1"/>
      <path id="Path_31" data-name="Path 31" d="M2640.383,93.022l22.456,75.407-64.262,58.277,7.785-103.847,34.452-29.837" fill="#b0816d" stroke="#b0816d" stroke-width="1"/>
      <path id="Path_33" data-name="Path 33" d="M2653.358,100.362l14.683,49.377-38.6,34.473-45.461-29.56v-66.2" transform="translate(-31 -68)" fill="#b0816d" stroke="#b0816d" stroke-width="1"/>
      <path id="Path_34" data-name="Path 34" d="M2598.665,100.478l-14.683,49.854,38.6,34.806,45.461-29.846V88.454" transform="translate(-126 -68)" fill="#b0816d" stroke="#b0816d" stroke-width="1"/>
      <path id="Path_32" data-name="Path 32" d="M2621.032,93.022l-22.456,75.407,64.262,58.277-7.785-103.847L2620.6,93.022" transform="translate(-166.044)" fill="#b0816d" stroke="#b0816d" stroke-width="1"/>
    </g>
    <path id="Path_37" data-name="Path 37" d="M2671,915.715l-48.82-16.623-78.194-71.529,25.863-86.052-25.3-21.778,9.975-47.137,37.259,6.838,79.427-14.584,78.93,14.531,36.986-6.608,9.837,47.151-2.908,1.335c-.188,0-22.445,20.465-22.445,20.465l25.822,86.515-78.971,70.791Z" fill="none" stroke="rgba(252,252,252,0.91)" stroke-width="1"/>
  </g>
</svg>
